<mxfile host="app.diagrams.net" agent="Mozilla/5.0 (Windows NT 10.0; Win64; x64) AppleWebKit/537.36 (KHTML, like Gecko) Chrome/136.0.0.0 Safari/537.36" version="27.1.1">
  <diagram id="R2lEEEUBdFMjLlhIrx00" name="Page-1">
    <mxGraphModel dx="2587" dy="957" grid="1" gridSize="10" guides="1" tooltips="1" connect="1" arrows="1" fold="1" page="1" pageScale="1" pageWidth="850" pageHeight="1100" math="0" shadow="0" extFonts="Permanent Marker^https://fonts.googleapis.com/css?family=Permanent+Marker">
      <root>
        <mxCell id="0" />
        <mxCell id="1" parent="0" />
        <mxCell id="JOEoy0LniI57_HsHXzFs-50" style="edgeStyle=orthogonalEdgeStyle;shape=connector;rounded=0;orthogonalLoop=1;jettySize=auto;html=1;exitX=0.5;exitY=1;exitDx=0;exitDy=0;strokeColor=default;align=center;verticalAlign=middle;fontFamily=Helvetica;fontSize=11;fontColor=default;labelBackgroundColor=default;startFill=0;endArrow=none;" edge="1" parent="1" source="JOEoy0LniI57_HsHXzFs-1">
          <mxGeometry relative="1" as="geometry">
            <mxPoint x="300" y="370" as="targetPoint" />
          </mxGeometry>
        </mxCell>
        <mxCell id="JOEoy0LniI57_HsHXzFs-1" value="Paciente" style="whiteSpace=wrap;html=1;align=center;" vertex="1" parent="1">
          <mxGeometry x="250" y="260" width="100" height="40" as="geometry" />
        </mxCell>
        <mxCell id="JOEoy0LniI57_HsHXzFs-9" style="edgeStyle=orthogonalEdgeStyle;rounded=0;orthogonalLoop=1;jettySize=auto;html=1;exitX=1;exitY=0.5;exitDx=0;exitDy=0;entryX=0;entryY=0.5;entryDx=0;entryDy=0;endArrow=none;startFill=0;" edge="1" parent="1" target="JOEoy0LniI57_HsHXzFs-1">
          <mxGeometry relative="1" as="geometry">
            <mxPoint x="150" y="130" as="sourcePoint" />
          </mxGeometry>
        </mxCell>
        <mxCell id="JOEoy0LniI57_HsHXzFs-10" style="edgeStyle=orthogonalEdgeStyle;rounded=0;orthogonalLoop=1;jettySize=auto;html=1;exitX=1;exitY=0.5;exitDx=0;exitDy=0;entryX=0;entryY=0.5;entryDx=0;entryDy=0;endArrow=none;startFill=0;" edge="1" parent="1" source="JOEoy0LniI57_HsHXzFs-3" target="JOEoy0LniI57_HsHXzFs-1">
          <mxGeometry relative="1" as="geometry" />
        </mxCell>
        <mxCell id="JOEoy0LniI57_HsHXzFs-3" value="Nombre" style="ellipse;whiteSpace=wrap;html=1;align=center;" vertex="1" parent="1">
          <mxGeometry x="50" y="160" width="100" height="40" as="geometry" />
        </mxCell>
        <mxCell id="JOEoy0LniI57_HsHXzFs-11" style="edgeStyle=orthogonalEdgeStyle;shape=connector;rounded=0;orthogonalLoop=1;jettySize=auto;html=1;exitX=1;exitY=0.5;exitDx=0;exitDy=0;entryX=0;entryY=0.5;entryDx=0;entryDy=0;strokeColor=default;align=center;verticalAlign=middle;fontFamily=Helvetica;fontSize=11;fontColor=default;labelBackgroundColor=default;startFill=0;endArrow=none;" edge="1" parent="1" source="JOEoy0LniI57_HsHXzFs-4" target="JOEoy0LniI57_HsHXzFs-1">
          <mxGeometry relative="1" as="geometry" />
        </mxCell>
        <mxCell id="JOEoy0LniI57_HsHXzFs-4" value="Rut" style="ellipse;whiteSpace=wrap;html=1;align=center;" vertex="1" parent="1">
          <mxGeometry x="50" y="210" width="100" height="40" as="geometry" />
        </mxCell>
        <mxCell id="JOEoy0LniI57_HsHXzFs-12" value="" style="edgeStyle=orthogonalEdgeStyle;shape=connector;rounded=0;orthogonalLoop=1;jettySize=auto;html=1;strokeColor=default;align=center;verticalAlign=middle;fontFamily=Helvetica;fontSize=11;fontColor=default;labelBackgroundColor=default;startFill=0;endArrow=none;" edge="1" parent="1" source="JOEoy0LniI57_HsHXzFs-5" target="JOEoy0LniI57_HsHXzFs-1">
          <mxGeometry relative="1" as="geometry" />
        </mxCell>
        <mxCell id="JOEoy0LniI57_HsHXzFs-5" value="Fecha_nacimiento" style="ellipse;whiteSpace=wrap;html=1;align=center;" vertex="1" parent="1">
          <mxGeometry x="50" y="260" width="100" height="40" as="geometry" />
        </mxCell>
        <mxCell id="JOEoy0LniI57_HsHXzFs-14" style="edgeStyle=orthogonalEdgeStyle;shape=connector;rounded=0;orthogonalLoop=1;jettySize=auto;html=1;exitX=1;exitY=0.5;exitDx=0;exitDy=0;entryX=0;entryY=0.5;entryDx=0;entryDy=0;strokeColor=default;align=center;verticalAlign=middle;fontFamily=Helvetica;fontSize=11;fontColor=default;labelBackgroundColor=default;startFill=0;endArrow=none;" edge="1" parent="1" target="JOEoy0LniI57_HsHXzFs-1">
          <mxGeometry relative="1" as="geometry">
            <mxPoint x="150" y="330" as="sourcePoint" />
          </mxGeometry>
        </mxCell>
        <mxCell id="JOEoy0LniI57_HsHXzFs-15" style="edgeStyle=orthogonalEdgeStyle;shape=connector;rounded=0;orthogonalLoop=1;jettySize=auto;html=1;exitX=1;exitY=0.5;exitDx=0;exitDy=0;entryX=0;entryY=0.5;entryDx=0;entryDy=0;strokeColor=default;align=center;verticalAlign=middle;fontFamily=Helvetica;fontSize=11;fontColor=default;labelBackgroundColor=default;startFill=0;endArrow=none;" edge="1" parent="1" source="JOEoy0LniI57_HsHXzFs-7" target="JOEoy0LniI57_HsHXzFs-1">
          <mxGeometry relative="1" as="geometry" />
        </mxCell>
        <mxCell id="JOEoy0LniI57_HsHXzFs-7" value="Teléfono" style="ellipse;whiteSpace=wrap;html=1;align=center;" vertex="1" parent="1">
          <mxGeometry x="50" y="360" width="100" height="40" as="geometry" />
        </mxCell>
        <mxCell id="JOEoy0LniI57_HsHXzFs-16" style="edgeStyle=orthogonalEdgeStyle;shape=connector;rounded=0;orthogonalLoop=1;jettySize=auto;html=1;exitX=1;exitY=0.5;exitDx=0;exitDy=0;entryX=0;entryY=0.5;entryDx=0;entryDy=0;strokeColor=default;align=center;verticalAlign=middle;fontFamily=Helvetica;fontSize=11;fontColor=default;labelBackgroundColor=default;startFill=0;endArrow=none;" edge="1" parent="1" source="JOEoy0LniI57_HsHXzFs-8" target="JOEoy0LniI57_HsHXzFs-1">
          <mxGeometry relative="1" as="geometry" />
        </mxCell>
        <mxCell id="JOEoy0LniI57_HsHXzFs-8" value="Correo" style="ellipse;whiteSpace=wrap;html=1;align=center;" vertex="1" parent="1">
          <mxGeometry x="50" y="410" width="100" height="40" as="geometry" />
        </mxCell>
        <mxCell id="JOEoy0LniI57_HsHXzFs-17" value="ID_paciente" style="ellipse;whiteSpace=wrap;html=1;align=center;fontStyle=4;fontFamily=Helvetica;fontSize=11;fontColor=default;labelBackgroundColor=default;" vertex="1" parent="1">
          <mxGeometry x="50" y="110" width="100" height="40" as="geometry" />
        </mxCell>
        <mxCell id="JOEoy0LniI57_HsHXzFs-18" value="Dirección" style="ellipse;shape=doubleEllipse;margin=3;whiteSpace=wrap;html=1;align=center;fontFamily=Helvetica;fontSize=11;fontColor=default;labelBackgroundColor=default;" vertex="1" parent="1">
          <mxGeometry x="50" y="310" width="100" height="40" as="geometry" />
        </mxCell>
        <mxCell id="JOEoy0LniI57_HsHXzFs-23" style="edgeStyle=orthogonalEdgeStyle;shape=connector;rounded=0;orthogonalLoop=1;jettySize=auto;html=1;exitX=1;exitY=0.5;exitDx=0;exitDy=0;entryX=0;entryY=0.5;entryDx=0;entryDy=0;strokeColor=default;align=center;verticalAlign=middle;fontFamily=Helvetica;fontSize=11;fontColor=default;labelBackgroundColor=default;startFill=0;endArrow=none;" edge="1" parent="1" source="JOEoy0LniI57_HsHXzFs-19" target="JOEoy0LniI57_HsHXzFs-18">
          <mxGeometry relative="1" as="geometry" />
        </mxCell>
        <mxCell id="JOEoy0LniI57_HsHXzFs-19" value="nro" style="ellipse;whiteSpace=wrap;html=1;align=center;fontFamily=Helvetica;fontSize=11;fontColor=default;labelBackgroundColor=default;" vertex="1" parent="1">
          <mxGeometry x="-100" y="235" width="100" height="40" as="geometry" />
        </mxCell>
        <mxCell id="JOEoy0LniI57_HsHXzFs-24" style="edgeStyle=orthogonalEdgeStyle;shape=connector;rounded=0;orthogonalLoop=1;jettySize=auto;html=1;exitX=1;exitY=0.5;exitDx=0;exitDy=0;entryX=0;entryY=0.5;entryDx=0;entryDy=0;strokeColor=default;align=center;verticalAlign=middle;fontFamily=Helvetica;fontSize=11;fontColor=default;labelBackgroundColor=default;startFill=0;endArrow=none;" edge="1" parent="1" source="JOEoy0LniI57_HsHXzFs-20" target="JOEoy0LniI57_HsHXzFs-18">
          <mxGeometry relative="1" as="geometry" />
        </mxCell>
        <mxCell id="JOEoy0LniI57_HsHXzFs-20" value="Calle" style="ellipse;whiteSpace=wrap;html=1;align=center;fontFamily=Helvetica;fontSize=11;fontColor=default;labelBackgroundColor=default;" vertex="1" parent="1">
          <mxGeometry x="-100" y="285" width="100" height="40" as="geometry" />
        </mxCell>
        <mxCell id="JOEoy0LniI57_HsHXzFs-25" style="edgeStyle=orthogonalEdgeStyle;shape=connector;rounded=0;orthogonalLoop=1;jettySize=auto;html=1;exitX=1;exitY=0.5;exitDx=0;exitDy=0;entryX=0;entryY=0.5;entryDx=0;entryDy=0;strokeColor=default;align=center;verticalAlign=middle;fontFamily=Helvetica;fontSize=11;fontColor=default;labelBackgroundColor=default;startFill=0;endArrow=none;" edge="1" parent="1" source="JOEoy0LniI57_HsHXzFs-21" target="JOEoy0LniI57_HsHXzFs-18">
          <mxGeometry relative="1" as="geometry" />
        </mxCell>
        <mxCell id="JOEoy0LniI57_HsHXzFs-21" value="Comuna" style="ellipse;whiteSpace=wrap;html=1;align=center;fontFamily=Helvetica;fontSize=11;fontColor=default;labelBackgroundColor=default;" vertex="1" parent="1">
          <mxGeometry x="-100" y="335" width="100" height="40" as="geometry" />
        </mxCell>
        <mxCell id="JOEoy0LniI57_HsHXzFs-26" style="edgeStyle=orthogonalEdgeStyle;shape=connector;rounded=0;orthogonalLoop=1;jettySize=auto;html=1;exitX=1;exitY=0.5;exitDx=0;exitDy=0;entryX=0;entryY=0.5;entryDx=0;entryDy=0;strokeColor=default;align=center;verticalAlign=middle;fontFamily=Helvetica;fontSize=11;fontColor=default;labelBackgroundColor=default;startFill=0;endArrow=none;" edge="1" parent="1" source="JOEoy0LniI57_HsHXzFs-22" target="JOEoy0LniI57_HsHXzFs-18">
          <mxGeometry relative="1" as="geometry" />
        </mxCell>
        <mxCell id="JOEoy0LniI57_HsHXzFs-22" value="Ciudad" style="ellipse;whiteSpace=wrap;html=1;align=center;fontFamily=Helvetica;fontSize=11;fontColor=default;labelBackgroundColor=default;" vertex="1" parent="1">
          <mxGeometry x="-100" y="385" width="100" height="40" as="geometry" />
        </mxCell>
        <mxCell id="JOEoy0LniI57_HsHXzFs-38" style="edgeStyle=orthogonalEdgeStyle;shape=connector;rounded=0;orthogonalLoop=1;jettySize=auto;html=1;exitX=1;exitY=0.5;exitDx=0;exitDy=0;entryX=0;entryY=0.5;entryDx=0;entryDy=0;strokeColor=default;align=center;verticalAlign=middle;fontFamily=Helvetica;fontSize=11;fontColor=default;labelBackgroundColor=default;startFill=0;endArrow=none;" edge="1" parent="1" source="JOEoy0LniI57_HsHXzFs-27" target="JOEoy0LniI57_HsHXzFs-28">
          <mxGeometry relative="1" as="geometry" />
        </mxCell>
        <mxCell id="JOEoy0LniI57_HsHXzFs-27" value="Médico" style="whiteSpace=wrap;html=1;align=center;fontFamily=Helvetica;fontSize=11;fontColor=default;labelBackgroundColor=default;" vertex="1" parent="1">
          <mxGeometry x="400" y="100" width="100" height="40" as="geometry" />
        </mxCell>
        <mxCell id="JOEoy0LniI57_HsHXzFs-39" style="edgeStyle=orthogonalEdgeStyle;shape=connector;rounded=0;orthogonalLoop=1;jettySize=auto;html=1;exitX=1;exitY=0.5;exitDx=0;exitDy=0;entryX=0;entryY=0.5;entryDx=0;entryDy=0;strokeColor=default;align=center;verticalAlign=middle;fontFamily=Helvetica;fontSize=11;fontColor=default;labelBackgroundColor=default;startFill=0;endArrow=none;" edge="1" parent="1" source="JOEoy0LniI57_HsHXzFs-28" target="JOEoy0LniI57_HsHXzFs-29">
          <mxGeometry relative="1" as="geometry" />
        </mxCell>
        <mxCell id="JOEoy0LniI57_HsHXzFs-28" value="Tiene" style="shape=rhombus;perimeter=rhombusPerimeter;whiteSpace=wrap;html=1;align=center;fontFamily=Helvetica;fontSize=11;fontColor=default;labelBackgroundColor=default;" vertex="1" parent="1">
          <mxGeometry x="550" y="90" width="120" height="60" as="geometry" />
        </mxCell>
        <mxCell id="JOEoy0LniI57_HsHXzFs-29" value="Especialidad" style="whiteSpace=wrap;html=1;align=center;fontFamily=Helvetica;fontSize=11;fontColor=default;labelBackgroundColor=default;" vertex="1" parent="1">
          <mxGeometry x="720" y="100" width="100" height="40" as="geometry" />
        </mxCell>
        <mxCell id="JOEoy0LniI57_HsHXzFs-31" style="edgeStyle=orthogonalEdgeStyle;shape=connector;rounded=0;orthogonalLoop=1;jettySize=auto;html=1;exitX=0.5;exitY=1;exitDx=0;exitDy=0;entryX=0.5;entryY=0;entryDx=0;entryDy=0;strokeColor=default;align=center;verticalAlign=middle;fontFamily=Helvetica;fontSize=11;fontColor=default;labelBackgroundColor=default;startFill=0;endArrow=none;" edge="1" parent="1" source="JOEoy0LniI57_HsHXzFs-30" target="JOEoy0LniI57_HsHXzFs-27">
          <mxGeometry relative="1" as="geometry" />
        </mxCell>
        <mxCell id="JOEoy0LniI57_HsHXzFs-30" value="Rut" style="ellipse;whiteSpace=wrap;html=1;align=center;fontFamily=Helvetica;fontSize=11;fontColor=default;labelBackgroundColor=default;" vertex="1" parent="1">
          <mxGeometry x="455" width="100" height="40" as="geometry" />
        </mxCell>
        <mxCell id="JOEoy0LniI57_HsHXzFs-33" style="edgeStyle=orthogonalEdgeStyle;shape=connector;rounded=0;orthogonalLoop=1;jettySize=auto;html=1;exitX=0.5;exitY=1;exitDx=0;exitDy=0;strokeColor=default;align=center;verticalAlign=middle;fontFamily=Helvetica;fontSize=11;fontColor=default;labelBackgroundColor=default;startFill=0;endArrow=none;" edge="1" parent="1" source="JOEoy0LniI57_HsHXzFs-32" target="JOEoy0LniI57_HsHXzFs-27">
          <mxGeometry relative="1" as="geometry" />
        </mxCell>
        <mxCell id="JOEoy0LniI57_HsHXzFs-32" value="Nombre" style="ellipse;whiteSpace=wrap;html=1;align=center;fontFamily=Helvetica;fontSize=11;fontColor=default;labelBackgroundColor=default;" vertex="1" parent="1">
          <mxGeometry x="345" width="100" height="40" as="geometry" />
        </mxCell>
        <mxCell id="JOEoy0LniI57_HsHXzFs-35" style="edgeStyle=orthogonalEdgeStyle;shape=connector;rounded=0;orthogonalLoop=1;jettySize=auto;html=1;exitX=0.5;exitY=1;exitDx=0;exitDy=0;entryX=0.5;entryY=0;entryDx=0;entryDy=0;strokeColor=default;align=center;verticalAlign=middle;fontFamily=Helvetica;fontSize=11;fontColor=default;labelBackgroundColor=default;startFill=0;endArrow=none;" edge="1" parent="1" source="JOEoy0LniI57_HsHXzFs-34" target="JOEoy0LniI57_HsHXzFs-27">
          <mxGeometry relative="1" as="geometry" />
        </mxCell>
        <mxCell id="JOEoy0LniI57_HsHXzFs-34" value="ID_medico" style="ellipse;whiteSpace=wrap;html=1;align=center;fontStyle=4;fontFamily=Helvetica;fontSize=11;fontColor=default;labelBackgroundColor=default;" vertex="1" parent="1">
          <mxGeometry x="235" width="100" height="40" as="geometry" />
        </mxCell>
        <mxCell id="JOEoy0LniI57_HsHXzFs-37" style="edgeStyle=orthogonalEdgeStyle;shape=connector;rounded=0;orthogonalLoop=1;jettySize=auto;html=1;exitX=0.5;exitY=1;exitDx=0;exitDy=0;strokeColor=default;align=center;verticalAlign=middle;fontFamily=Helvetica;fontSize=11;fontColor=default;labelBackgroundColor=default;startFill=0;endArrow=none;" edge="1" parent="1" source="JOEoy0LniI57_HsHXzFs-36">
          <mxGeometry relative="1" as="geometry">
            <mxPoint x="450" y="100" as="targetPoint" />
          </mxGeometry>
        </mxCell>
        <mxCell id="JOEoy0LniI57_HsHXzFs-36" value="Correo" style="ellipse;whiteSpace=wrap;html=1;align=center;fontFamily=Helvetica;fontSize=11;fontColor=default;labelBackgroundColor=default;" vertex="1" parent="1">
          <mxGeometry x="565" width="100" height="40" as="geometry" />
        </mxCell>
        <mxCell id="JOEoy0LniI57_HsHXzFs-42" value="" style="edgeStyle=orthogonalEdgeStyle;shape=connector;rounded=0;orthogonalLoop=1;jettySize=auto;html=1;strokeColor=default;align=center;verticalAlign=middle;fontFamily=Helvetica;fontSize=11;fontColor=default;labelBackgroundColor=default;startFill=0;endArrow=none;" edge="1" parent="1" source="JOEoy0LniI57_HsHXzFs-40" target="JOEoy0LniI57_HsHXzFs-29">
          <mxGeometry relative="1" as="geometry" />
        </mxCell>
        <mxCell id="JOEoy0LniI57_HsHXzFs-44" value="" style="edgeStyle=orthogonalEdgeStyle;shape=connector;rounded=0;orthogonalLoop=1;jettySize=auto;html=1;strokeColor=default;align=center;verticalAlign=middle;fontFamily=Helvetica;fontSize=11;fontColor=default;labelBackgroundColor=default;startFill=0;endArrow=none;" edge="1" parent="1" source="JOEoy0LniI57_HsHXzFs-40" target="JOEoy0LniI57_HsHXzFs-29">
          <mxGeometry relative="1" as="geometry" />
        </mxCell>
        <mxCell id="JOEoy0LniI57_HsHXzFs-40" value="Nombre" style="ellipse;whiteSpace=wrap;html=1;align=center;fontFamily=Helvetica;fontSize=11;fontColor=default;labelBackgroundColor=default;" vertex="1" parent="1">
          <mxGeometry x="890" y="70" width="100" height="40" as="geometry" />
        </mxCell>
        <mxCell id="JOEoy0LniI57_HsHXzFs-45" value="" style="edgeStyle=orthogonalEdgeStyle;shape=connector;rounded=0;orthogonalLoop=1;jettySize=auto;html=1;strokeColor=default;align=center;verticalAlign=middle;fontFamily=Helvetica;fontSize=11;fontColor=default;labelBackgroundColor=default;startFill=0;endArrow=none;" edge="1" parent="1" source="JOEoy0LniI57_HsHXzFs-43" target="JOEoy0LniI57_HsHXzFs-29">
          <mxGeometry relative="1" as="geometry" />
        </mxCell>
        <mxCell id="JOEoy0LniI57_HsHXzFs-43" value="ID_especialidad" style="ellipse;whiteSpace=wrap;html=1;align=center;fontStyle=4;fontFamily=Helvetica;fontSize=11;fontColor=default;labelBackgroundColor=default;" vertex="1" parent="1">
          <mxGeometry x="890" y="130" width="100" height="40" as="geometry" />
        </mxCell>
        <mxCell id="JOEoy0LniI57_HsHXzFs-47" value="" style="edgeStyle=orthogonalEdgeStyle;shape=connector;rounded=0;orthogonalLoop=1;jettySize=auto;html=1;strokeColor=default;align=center;verticalAlign=middle;fontFamily=Helvetica;fontSize=11;fontColor=default;labelBackgroundColor=default;startFill=0;endArrow=none;" edge="1" parent="1" source="JOEoy0LniI57_HsHXzFs-46" target="JOEoy0LniI57_HsHXzFs-27">
          <mxGeometry relative="1" as="geometry" />
        </mxCell>
        <mxCell id="JOEoy0LniI57_HsHXzFs-48" value="" style="edgeStyle=orthogonalEdgeStyle;shape=connector;rounded=0;orthogonalLoop=1;jettySize=auto;html=1;strokeColor=default;align=center;verticalAlign=middle;fontFamily=Helvetica;fontSize=11;fontColor=default;labelBackgroundColor=default;startFill=0;endArrow=none;" edge="1" parent="1" source="JOEoy0LniI57_HsHXzFs-46" target="JOEoy0LniI57_HsHXzFs-1">
          <mxGeometry relative="1" as="geometry" />
        </mxCell>
        <mxCell id="JOEoy0LniI57_HsHXzFs-46" value="Atiende" style="shape=rhombus;perimeter=rhombusPerimeter;whiteSpace=wrap;html=1;align=center;fontFamily=Helvetica;fontSize=11;fontColor=default;labelBackgroundColor=default;" vertex="1" parent="1">
          <mxGeometry x="240" y="90" width="120" height="60" as="geometry" />
        </mxCell>
        <mxCell id="JOEoy0LniI57_HsHXzFs-53" value="" style="edgeStyle=orthogonalEdgeStyle;shape=connector;rounded=0;orthogonalLoop=1;jettySize=auto;html=1;strokeColor=default;align=center;verticalAlign=middle;fontFamily=Helvetica;fontSize=11;fontColor=default;labelBackgroundColor=default;startFill=0;endArrow=none;" edge="1" parent="1" source="JOEoy0LniI57_HsHXzFs-49" target="JOEoy0LniI57_HsHXzFs-51">
          <mxGeometry relative="1" as="geometry" />
        </mxCell>
        <mxCell id="JOEoy0LniI57_HsHXzFs-49" value="Cita_médica" style="whiteSpace=wrap;html=1;align=center;fontFamily=Helvetica;fontSize=11;fontColor=default;labelBackgroundColor=default;" vertex="1" parent="1">
          <mxGeometry x="250" y="580" width="100" height="40" as="geometry" />
        </mxCell>
        <mxCell id="JOEoy0LniI57_HsHXzFs-52" value="" style="edgeStyle=orthogonalEdgeStyle;shape=connector;rounded=0;orthogonalLoop=1;jettySize=auto;html=1;strokeColor=default;align=center;verticalAlign=middle;fontFamily=Helvetica;fontSize=11;fontColor=default;labelBackgroundColor=default;startFill=0;endArrow=none;" edge="1" parent="1" source="JOEoy0LniI57_HsHXzFs-51" target="JOEoy0LniI57_HsHXzFs-1">
          <mxGeometry relative="1" as="geometry" />
        </mxCell>
        <mxCell id="JOEoy0LniI57_HsHXzFs-51" value="Tiene" style="shape=rhombus;perimeter=rhombusPerimeter;whiteSpace=wrap;html=1;align=center;fontFamily=Helvetica;fontSize=11;fontColor=default;labelBackgroundColor=default;" vertex="1" parent="1">
          <mxGeometry x="240" y="410" width="120" height="60" as="geometry" />
        </mxCell>
        <mxCell id="JOEoy0LniI57_HsHXzFs-63" style="edgeStyle=orthogonalEdgeStyle;shape=connector;rounded=0;orthogonalLoop=1;jettySize=auto;html=1;exitX=1;exitY=0.5;exitDx=0;exitDy=0;entryX=0;entryY=0.5;entryDx=0;entryDy=0;strokeColor=default;align=center;verticalAlign=middle;fontFamily=Helvetica;fontSize=11;fontColor=default;labelBackgroundColor=default;startFill=0;endArrow=none;" edge="1" parent="1" source="JOEoy0LniI57_HsHXzFs-54" target="JOEoy0LniI57_HsHXzFs-49">
          <mxGeometry relative="1" as="geometry" />
        </mxCell>
        <mxCell id="JOEoy0LniI57_HsHXzFs-54" value="Fecha" style="ellipse;whiteSpace=wrap;html=1;align=center;fontFamily=Helvetica;fontSize=11;fontColor=default;labelBackgroundColor=default;" vertex="1" parent="1">
          <mxGeometry x="50" y="510" width="100" height="40" as="geometry" />
        </mxCell>
        <mxCell id="JOEoy0LniI57_HsHXzFs-62" style="edgeStyle=orthogonalEdgeStyle;shape=connector;rounded=0;orthogonalLoop=1;jettySize=auto;html=1;exitX=1;exitY=0.5;exitDx=0;exitDy=0;entryX=0;entryY=0.5;entryDx=0;entryDy=0;strokeColor=default;align=center;verticalAlign=middle;fontFamily=Helvetica;fontSize=11;fontColor=default;labelBackgroundColor=default;startFill=0;endArrow=none;" edge="1" parent="1" source="JOEoy0LniI57_HsHXzFs-55" target="JOEoy0LniI57_HsHXzFs-49">
          <mxGeometry relative="1" as="geometry" />
        </mxCell>
        <mxCell id="JOEoy0LniI57_HsHXzFs-55" value="ID_cita" style="ellipse;whiteSpace=wrap;html=1;align=center;fontStyle=4;fontFamily=Helvetica;fontSize=11;fontColor=default;labelBackgroundColor=default;" vertex="1" parent="1">
          <mxGeometry x="50" y="460" width="100" height="40" as="geometry" />
        </mxCell>
        <mxCell id="JOEoy0LniI57_HsHXzFs-64" style="edgeStyle=orthogonalEdgeStyle;shape=connector;rounded=0;orthogonalLoop=1;jettySize=auto;html=1;exitX=1;exitY=0.5;exitDx=0;exitDy=0;entryX=0;entryY=0.5;entryDx=0;entryDy=0;strokeColor=default;align=center;verticalAlign=middle;fontFamily=Helvetica;fontSize=11;fontColor=default;labelBackgroundColor=default;startFill=0;endArrow=none;" edge="1" parent="1" source="JOEoy0LniI57_HsHXzFs-58" target="JOEoy0LniI57_HsHXzFs-49">
          <mxGeometry relative="1" as="geometry" />
        </mxCell>
        <mxCell id="JOEoy0LniI57_HsHXzFs-58" value="Hora" style="ellipse;whiteSpace=wrap;html=1;align=center;fontFamily=Helvetica;fontSize=11;fontColor=default;labelBackgroundColor=default;" vertex="1" parent="1">
          <mxGeometry x="50" y="560" width="100" height="40" as="geometry" />
        </mxCell>
        <mxCell id="JOEoy0LniI57_HsHXzFs-65" style="edgeStyle=orthogonalEdgeStyle;shape=connector;rounded=0;orthogonalLoop=1;jettySize=auto;html=1;exitX=1;exitY=0.5;exitDx=0;exitDy=0;entryX=0;entryY=0.5;entryDx=0;entryDy=0;strokeColor=default;align=center;verticalAlign=middle;fontFamily=Helvetica;fontSize=11;fontColor=default;labelBackgroundColor=default;startFill=0;endArrow=none;" edge="1" parent="1" source="JOEoy0LniI57_HsHXzFs-59" target="JOEoy0LniI57_HsHXzFs-49">
          <mxGeometry relative="1" as="geometry" />
        </mxCell>
        <mxCell id="JOEoy0LniI57_HsHXzFs-59" value="Motivo" style="ellipse;whiteSpace=wrap;html=1;align=center;fontFamily=Helvetica;fontSize=11;fontColor=default;labelBackgroundColor=default;" vertex="1" parent="1">
          <mxGeometry x="50" y="610" width="100" height="40" as="geometry" />
        </mxCell>
        <mxCell id="JOEoy0LniI57_HsHXzFs-66" style="edgeStyle=orthogonalEdgeStyle;shape=connector;rounded=0;orthogonalLoop=1;jettySize=auto;html=1;exitX=1;exitY=0.5;exitDx=0;exitDy=0;entryX=0;entryY=0.5;entryDx=0;entryDy=0;strokeColor=default;align=center;verticalAlign=middle;fontFamily=Helvetica;fontSize=11;fontColor=default;labelBackgroundColor=default;startFill=0;endArrow=none;" edge="1" parent="1" source="JOEoy0LniI57_HsHXzFs-60" target="JOEoy0LniI57_HsHXzFs-49">
          <mxGeometry relative="1" as="geometry" />
        </mxCell>
        <mxCell id="JOEoy0LniI57_HsHXzFs-60" value="ID_paciente" style="ellipse;whiteSpace=wrap;html=1;align=center;fontFamily=Helvetica;fontSize=11;fontColor=default;labelBackgroundColor=default;" vertex="1" parent="1">
          <mxGeometry x="50" y="660" width="100" height="40" as="geometry" />
        </mxCell>
        <mxCell id="JOEoy0LniI57_HsHXzFs-67" style="edgeStyle=orthogonalEdgeStyle;shape=connector;rounded=0;orthogonalLoop=1;jettySize=auto;html=1;exitX=1;exitY=0.5;exitDx=0;exitDy=0;entryX=0;entryY=0.5;entryDx=0;entryDy=0;strokeColor=default;align=center;verticalAlign=middle;fontFamily=Helvetica;fontSize=11;fontColor=default;labelBackgroundColor=default;startFill=0;endArrow=none;" edge="1" parent="1" source="JOEoy0LniI57_HsHXzFs-61" target="JOEoy0LniI57_HsHXzFs-49">
          <mxGeometry relative="1" as="geometry" />
        </mxCell>
        <mxCell id="JOEoy0LniI57_HsHXzFs-61" value="ID_médico" style="ellipse;whiteSpace=wrap;html=1;align=center;fontFamily=Helvetica;fontSize=11;fontColor=default;labelBackgroundColor=default;" vertex="1" parent="1">
          <mxGeometry x="50" y="710" width="100" height="40" as="geometry" />
        </mxCell>
        <mxCell id="JOEoy0LniI57_HsHXzFs-73" style="edgeStyle=orthogonalEdgeStyle;shape=connector;rounded=0;orthogonalLoop=1;jettySize=auto;html=1;exitX=1;exitY=0.5;exitDx=0;exitDy=0;entryX=0;entryY=0.5;entryDx=0;entryDy=0;strokeColor=default;align=center;verticalAlign=middle;fontFamily=Helvetica;fontSize=11;fontColor=default;labelBackgroundColor=default;startFill=0;endArrow=none;" edge="1" parent="1" source="JOEoy0LniI57_HsHXzFs-78" target="JOEoy0LniI57_HsHXzFs-54">
          <mxGeometry relative="1" as="geometry">
            <mxPoint y="460" as="sourcePoint" />
          </mxGeometry>
        </mxCell>
        <mxCell id="JOEoy0LniI57_HsHXzFs-76" style="edgeStyle=orthogonalEdgeStyle;shape=connector;rounded=0;orthogonalLoop=1;jettySize=auto;html=1;exitX=1;exitY=0.5;exitDx=0;exitDy=0;strokeColor=default;align=center;verticalAlign=middle;fontFamily=Helvetica;fontSize=11;fontColor=default;labelBackgroundColor=default;startFill=0;endArrow=none;" edge="1" parent="1" source="JOEoy0LniI57_HsHXzFs-70">
          <mxGeometry relative="1" as="geometry">
            <mxPoint x="50" y="530" as="targetPoint" />
          </mxGeometry>
        </mxCell>
        <mxCell id="JOEoy0LniI57_HsHXzFs-70" value="Mes" style="ellipse;whiteSpace=wrap;html=1;align=center;fontFamily=Helvetica;fontSize=11;fontColor=default;labelBackgroundColor=default;" vertex="1" parent="1">
          <mxGeometry x="-100" y="490" width="100" height="40" as="geometry" />
        </mxCell>
        <mxCell id="JOEoy0LniI57_HsHXzFs-75" style="edgeStyle=orthogonalEdgeStyle;shape=connector;rounded=0;orthogonalLoop=1;jettySize=auto;html=1;exitX=1;exitY=0.5;exitDx=0;exitDy=0;entryX=0;entryY=0.5;entryDx=0;entryDy=0;strokeColor=default;align=center;verticalAlign=middle;fontFamily=Helvetica;fontSize=11;fontColor=default;labelBackgroundColor=default;startFill=0;endArrow=none;" edge="1" parent="1" source="JOEoy0LniI57_HsHXzFs-71" target="JOEoy0LniI57_HsHXzFs-54">
          <mxGeometry relative="1" as="geometry" />
        </mxCell>
        <mxCell id="JOEoy0LniI57_HsHXzFs-71" value="Año" style="ellipse;whiteSpace=wrap;html=1;align=center;fontFamily=Helvetica;fontSize=11;fontColor=default;labelBackgroundColor=default;" vertex="1" parent="1">
          <mxGeometry x="-100" y="540" width="100" height="40" as="geometry" />
        </mxCell>
        <mxCell id="JOEoy0LniI57_HsHXzFs-77" style="edgeStyle=orthogonalEdgeStyle;shape=connector;rounded=0;orthogonalLoop=1;jettySize=auto;html=1;exitX=1;exitY=0.5;exitDx=0;exitDy=0;entryX=0;entryY=0.5;entryDx=0;entryDy=0;strokeColor=default;align=center;verticalAlign=middle;fontFamily=Helvetica;fontSize=11;fontColor=default;labelBackgroundColor=default;startFill=0;endArrow=none;" edge="1" parent="1" source="JOEoy0LniI57_HsHXzFs-72" target="JOEoy0LniI57_HsHXzFs-54">
          <mxGeometry relative="1" as="geometry" />
        </mxCell>
        <mxCell id="JOEoy0LniI57_HsHXzFs-72" value="Hora" style="ellipse;whiteSpace=wrap;html=1;align=center;fontFamily=Helvetica;fontSize=11;fontColor=default;labelBackgroundColor=default;" vertex="1" parent="1">
          <mxGeometry x="-100" y="590" width="100" height="40" as="geometry" />
        </mxCell>
        <mxCell id="JOEoy0LniI57_HsHXzFs-78" value="&lt;span style=&quot;border-bottom: 1px dotted&quot;&gt;Día&lt;/span&gt;" style="ellipse;whiteSpace=wrap;html=1;align=center;fontFamily=Helvetica;fontSize=11;fontColor=default;labelBackgroundColor=default;" vertex="1" parent="1">
          <mxGeometry x="-100" y="440" width="100" height="40" as="geometry" />
        </mxCell>
      </root>
    </mxGraphModel>
  </diagram>
</mxfile>
